<?xml version="1.0" encoding="UTF-8"?>
<svg id="Layer_1" data-name="Layer 1" xmlns="http://www.w3.org/2000/svg" version="1.1" viewBox="0 0 787.2 229.4">
  <defs>
    <style>
      .cls-1 {
        fill: #0d3562;
      }

      .cls-1, .cls-2 {
        stroke-width: 0px;
      }

      .cls-2 {
        fill: #086bd8;
      }
    </style>
  </defs>
  <polygon class="cls-2" points="73.3 86.4 104.3 29 104.3 23.8 41.1 23.8 41.1 45.4 70.3 45.4 39.1 103.2 39.1 108 105.8 108 105.8 86.4 73.3 86.4"/>
  <path class="cls-2" d="M309,90.4c-8.4,0-14.6-6.3-14.6-14.9s6.2-14.9,14.6-14.9,14.6,6.3,14.6,14.9-6.2,14.9-14.6,14.9ZM312,40.9c-7.7,0-14.6,2.7-19.9,7.3l-2.8-5.2h-15.2v88.5h22.1v-25.6c4.6,2.8,10,4.3,15.9,4.3,19.9,0,34.1-14.4,34.1-34.7s-14.2-34.6-34.1-34.6ZM227.2,90.1c-8.2,0-14-5.9-14-14.5s5.9-14.5,14-14.5,14,6,14,14.5c0,8.6-5.9,14.5-14,14.5h0ZM227.2,110.2c21.1,0,36.4-14.6,36.4-34.6s-15.3-34.6-36.4-34.6-36.4,14.5-36.4,34.6c0,20.1,15.3,34.6,36.4,34.6ZM147.8,90.1c-8.2,0-14-5.9-14-14.5s5.9-14.5,14-14.5,14,6,14,14.5c0,8.6-5.9,14.5-14,14.5h0ZM147.8,110.2c21.1,0,36.4-14.6,36.4-34.6s-15.3-34.6-36.4-34.6-36.4,14.5-36.4,34.6c0,20.1,15.2,34.6,36.4,34.6Z"/>
  <path class="cls-1" d="M748.2,108l-22.3-34,20.3-31h-25.1l-15.5,25.5V19.5h-22.4v88.5h22.4v-27.5l16.3,27.5h26.4ZM637.7,110.2c18.3,0,32.2-11.9,34.7-29.5h-22c-1.8,5.8-6.7,9.5-12.7,9.5s-13.5-6.1-13.5-14.6,5.6-14.4,13.5-14.4,10.8,3.4,12.7,8.7h21.8c-2.4-17.3-16.1-28.8-34.4-28.8s-36,14.3-36,34.4,15.1,34.7,35.9,34.7h0ZM559.9,58.4c6.8,0,11.4,3.5,13.4,10h-26.3c1.8-6.5,6.3-10,12.9-10ZM595.4,74.9c0-19.1-14.5-34-35.5-34s-35.3,14.7-35.3,34.6,15,34.7,35.3,34.7,29.5-9.3,34-24.1h-22.3c-2.2,3.8-6.5,6.1-11.8,6.1s-11.8-3.9-13.3-11.3h48.3c.3-2,.5-4,.5-5.9h0ZM490.5,41.1c-6.5,0-12.6,2.3-17.4,6.2v-27.7h-22.4v88.5h22.4v-34.7c0-8.3,4.2-13.1,11-13.1s8.5,3.8,8.5,11.3v36.6h22.4v-39.1c0-16.9-9.6-27.8-24.5-27.8ZM397.9,110.2c22.4,0,39.7-15,42.9-37.2h-23.7c-2.4,9.4-9.7,15.5-19.1,15.5s-20.7-9.5-20.7-22.4,8.8-22.6,20.7-22.6,16.1,5.6,19,14.3h23.5c-3.4-21.4-20.5-35.9-42.6-35.9s-44.8,19-44.8,44.3c0,25.2,19.2,44.2,44.8,44.2h0Z"/>
  <path class="cls-1" d="M669.4,189.7c.6,0,1.2-.2,1.6-.7s.7-1,.7-1.7-.2-1.2-.7-1.7c-.4-.4-1-.7-1.6-.7s-1.2.2-1.7.7c-.4.4-.7,1-.7,1.7s.2,1.2.7,1.7c.4.5,1,.7,1.7.7ZM667.5,157.3l.4,23.6h2.7l.4-23.6h-3.5ZM651.9,189.8c1.7,0,3.2-.3,4.5-.9,1.3-.6,2.3-1.4,3.1-2.5.7-1.1,1.1-2.3,1.1-3.6,0-1.5-.4-2.6-1.2-3.5-.8-.9-1.7-1.6-2.8-2s-2.5-.9-4.3-1.4c-1.5-.4-2.7-.8-3.6-1.2s-1.6-.8-2.2-1.5c-.6-.6-.9-1.4-.9-2.4s.5-2.1,1.5-2.8c1-.8,2.3-1.1,3.9-1.1s3.3.5,4.3,1.4c1.1.9,1.6,2.1,1.7,3.6h3.2c-.1-2.4-1-4.3-2.7-5.6-1.7-1.4-3.8-2-6.5-2s-3.2.3-4.6.9c-1.3.6-2.4,1.4-3.1,2.5s-1.1,2.2-1.1,3.4.4,2.9,1.2,3.9,1.8,1.7,3,2.2,2.7,1,4.5,1.5c1.4.4,2.6.7,3.4,1s1.5.8,2.1,1.3.8,1.3.8,2.1c0,1.2-.5,2.3-1.5,3.1-1,.8-2.4,1.2-4.1,1.2s-3.6-.4-4.8-1.3c-1.2-.9-1.8-2-2-3.4h-3.3c.2,2.3,1.2,4.1,3,5.4,1.8,1.3,4.2,2,7,2ZM632.7,164.4v13.6c0,3-.7,5.2-2.2,6.7-1.4,1.5-3.4,2.3-5.8,2.3s-4.2-.7-5.6-2.2-2-3.5-2-6.2v-14.3h-3.2v14.6c0,3.5,1,6.2,2.8,8.1,1.9,1.8,4.3,2.8,7.3,2.8s3.6-.4,5.1-1.2,2.7-2,3.4-3.6v4.4h3.2v-25.1h-3.2ZM584.5,163.9c-1.9,0-3.7.4-5.2,1.2s-2.7,2-3.5,3.5v-13.2h-3.2v34h3.2v-13.7c0-3,.7-5.2,2.2-6.7s3.4-2.3,5.8-2.3,4.2.7,5.6,2.2c1.4,1.4,2,3.5,2,6.2v14.3h3.2v-14.7c0-2.4-.4-4.3-1.3-6-.9-1.6-2.1-2.9-3.6-3.6-1.5-.8-3.2-1.2-5.1-1.2ZM567.3,167.1v-2.7h-6.9v-6.3h-3.3v6.3h-3.5v2.7h3.5v15.6c0,2.4.5,4.2,1.7,5.2,1.1,1.1,2.8,1.6,5,1.6h3.4v-2.8h-2.9c-1.5,0-2.5-.3-3.1-.9s-.9-1.6-.9-3.2v-15.6h6.9ZM545.7,164.4v25.1h3.2v-25.1h-3.2ZM547.4,159.6c.6,0,1.2-.2,1.7-.7.5-.5.7-1,.7-1.7s-.2-1.2-.7-1.7c-.5-.4-1-.7-1.7-.7s-1.2.2-1.7.7-.7,1-.7,1.7.2,1.2.7,1.7c.5.5,1,.7,1.7.7ZM538.2,164.4l-6.2,21.8-6.9-21.8h-3.2l-7,21.8-6.2-21.8h-3.3l7.8,25.1h3.3l6.9-21,6.9,21h3.2l7.8-25.1h-3.2ZM486.6,176.9c0,2-.4,3.8-1.2,5.4s-1.9,2.7-3.3,3.5c-1.4.8-3,1.2-4.8,1.2s-3.3-.4-4.7-1.2c-1.4-.8-2.5-2-3.4-3.5-.8-1.5-1.2-3.3-1.2-5.3s.4-3.8,1.2-5.3,2-2.7,3.4-3.5c1.4-.8,3-1.2,4.7-1.2s3.4.4,4.8,1.2,2.5,2,3.3,3.5c.8,1.5,1.2,3.3,1.2,5.4ZM468,169.9v-14.5h-3.2v34h3.2v-5.5c.8,1.7,2.1,3.2,3.8,4.2,1.7,1.1,3.8,1.6,6.2,1.6s4.3-.5,6.1-1.6,3.2-2.6,4.3-4.5c1-2,1.5-4.2,1.5-6.8s-.5-4.8-1.5-6.8c-1-1.9-2.4-3.4-4.2-4.5-1.8-1.1-3.9-1.6-6.1-1.6s-4.4.5-6.1,1.7c-1.7,1.1-3,2.5-3.8,4.3ZM446.3,187c-1.7,0-3.2-.4-4.6-1.1-1.4-.8-2.5-1.9-3.3-3.4s-1.3-3.4-1.3-5.6.4-4.1,1.3-5.6c.8-1.5,2-2.6,3.4-3.4,1.4-.8,2.9-1.1,4.6-1.1s3.2.4,4.6,1.1c1.4.8,2.5,1.9,3.4,3.4s1.3,3.4,1.3,5.6-.4,4.1-1.3,5.6c-.9,1.5-2,2.6-3.4,3.4-1.4.8-3,1.1-4.6,1.1ZM446.3,189.8c2.4,0,4.5-.5,6.4-1.6,1.9-1.1,3.4-2.6,4.5-4.5,1.1-2,1.7-4.2,1.7-6.8s-.5-4.9-1.6-6.8c-1.1-1.9-2.6-3.4-4.5-4.5s-4-1.6-6.4-1.6-4.5.5-6.4,1.6c-1.9,1.1-3.4,2.6-4.5,4.5-1.1,1.9-1.7,4.2-1.7,6.8s.5,4.9,1.6,6.8,2.6,3.4,4.5,4.5c1.9,1.1,4,1.6,6.4,1.6ZM428,164.4h-3.2v30.8c0,1.2-.3,2-.8,2.5-.5.5-1.4.8-2.6.8h-1.7v2.8h2.3c2,0,3.5-.5,4.5-1.4s1.5-2.5,1.5-4.5v-31ZM426.4,159.6c.6,0,1.2-.2,1.6-.7.4-.5.7-1,.7-1.7s-.2-1.2-.7-1.7c-.4-.4-1-.7-1.6-.7s-1.2.2-1.7.7-.7,1-.7,1.7.2,1.2.7,1.7c.5.5,1,.7,1.7.7ZM401.5,176.9c0,2-.4,3.8-1.2,5.3s-2,2.7-3.4,3.5c-1.4.8-3,1.2-4.7,1.2s-3.4-.4-4.8-1.2-2.5-2-3.3-3.5c-.8-1.5-1.2-3.3-1.2-5.4s.4-3.9,1.2-5.4c.8-1.5,1.9-2.7,3.3-3.5,1.4-.8,3-1.2,4.8-1.2s3.3.4,4.7,1.2c1.4.8,2.5,2,3.4,3.5s1.2,3.3,1.2,5.3ZM379.6,176.9c0,2.6.5,4.8,1.5,6.8,1,2,2.4,3.5,4.3,4.5,1.8,1.1,3.9,1.6,6.1,1.6s4.4-.6,6.2-1.7,3-2.5,3.8-4.2v5.5h3.2v-25.1h-3.2v5.5c-.8-1.7-2-3.1-3.7-4.2-1.7-1.1-3.8-1.7-6.2-1.7s-4.3.5-6.2,1.6c-1.8,1.1-3.2,2.6-4.3,4.5-1,1.9-1.5,4.2-1.5,6.8ZM357.9,176.9c0,2-.4,3.8-1.2,5.3-.8,1.5-2,2.7-3.4,3.5-1.4.8-3,1.2-4.7,1.2s-3.4-.4-4.8-1.2-2.5-2-3.3-3.5c-.8-1.5-1.2-3.3-1.2-5.4s.4-3.9,1.2-5.4c.8-1.5,1.9-2.7,3.3-3.5,1.4-.8,3-1.2,4.8-1.2s3.3.4,4.7,1.2,2.5,2,3.4,3.5c.8,1.5,1.2,3.3,1.2,5.3ZM336,176.9c0,2.6.5,4.8,1.5,6.8,1,2,2.4,3.5,4.3,4.5,1.8,1.1,3.9,1.6,6.2,1.6s4.4-.6,6.1-1.7c1.7-1.1,3-2.5,3.8-4.3v5.6h3.2v-34h-3.2v14.3c-.8-1.7-2.1-3.1-3.9-4.2-1.8-1.1-3.8-1.6-6-1.6s-4.4.5-6.2,1.6c-1.8,1.1-3.3,2.6-4.3,4.5-1,1.9-1.6,4.2-1.6,6.8ZM320.2,163.9c-1.9,0-3.6.4-5.1,1.2s-2.6,2-3.4,3.5v-4.3h-3.2v25.1h3.2v-13.7c0-3,.7-5.2,2.2-6.7s3.4-2.3,5.8-2.3,4.2.7,5.6,2.2c1.4,1.4,2,3.5,2,6.2v14.3h3.2v-14.7c0-3.5-1-6.2-2.8-8.1-1.9-1.8-4.3-2.8-7.3-2.8ZM297.9,164.4v25.1h3.2v-25.1h-3.2ZM299.5,159.6c.6,0,1.2-.2,1.7-.7.5-.5.7-1,.7-1.7s-.2-1.2-.7-1.7c-.5-.4-1-.7-1.7-.7s-1.2.2-1.7.7-.7,1-.7,1.7.2,1.2.7,1.7,1,.7,1.7.7ZM292.9,164.4h-5.8v-1.7c0-1.9.4-3.2,1.3-4s2.3-1.2,4.4-1.2v-2.8c-3.1,0-5.4.6-6.8,1.9-1.4,1.3-2.1,3.3-2.1,6v1.7h-3.5v2.7h3.5v22.3h3.2v-22.3h5.8v-2.7h0ZM255.7,189.8c1.7,0,3.2-.3,4.5-.9,1.3-.6,2.3-1.4,3.1-2.5s1.1-2.3,1.1-3.6c0-1.5-.4-2.6-1.2-3.5-.8-.9-1.7-1.6-2.8-2s-2.5-.9-4.3-1.4c-1.5-.4-2.7-.8-3.6-1.2s-1.6-.8-2.2-1.5c-.6-.6-.9-1.4-.9-2.4s.5-2.1,1.5-2.8c1-.8,2.3-1.1,3.9-1.1s3.3.5,4.3,1.4,1.6,2.1,1.7,3.6h3.2c-.1-2.4-1-4.3-2.7-5.6-1.7-1.4-3.8-2-6.5-2s-3.2.3-4.6.9c-1.3.6-2.4,1.4-3.1,2.5-.7,1-1.1,2.2-1.1,3.4s.4,2.9,1.2,3.9,1.8,1.7,3,2.2,2.7,1,4.5,1.5c1.4.4,2.6.7,3.4,1s1.5.8,2.1,1.3.8,1.3.8,2.1c0,1.2-.5,2.3-1.5,3.1s-2.4,1.2-4.1,1.2-3.6-.4-4.8-1.3c-1.2-.9-1.8-2-2-3.4h-3.3c.2,2.3,1.2,4.1,3,5.4,1.8,1.3,4.2,2,7,2ZM239.4,164.4l-8.3,21.4-8.5-21.4h-3.5l10.3,24.9-4.9,11.9h3.3l14.9-36.8h-3.3ZM211.5,176.9c0,2-.4,3.8-1.2,5.3-.8,1.5-2,2.7-3.4,3.5-1.4.8-3,1.2-4.7,1.2s-3.4-.4-4.8-1.2-2.5-2-3.3-3.5c-.8-1.5-1.2-3.3-1.2-5.4s.4-3.9,1.2-5.4c.8-1.5,1.9-2.7,3.3-3.5,1.4-.8,3-1.2,4.8-1.2s3.3.4,4.7,1.2,2.5,2,3.4,3.5,1.2,3.3,1.2,5.3ZM189.6,176.9c0,2.6.5,4.8,1.5,6.8,1,2,2.4,3.5,4.3,4.5,1.8,1.1,3.9,1.6,6.1,1.6s4.4-.6,6.2-1.7c1.7-1.1,3-2.5,3.8-4.2v5.5h3.2v-25.1h-3.2v5.5c-.8-1.7-2-3.1-3.7-4.2-1.7-1.1-3.8-1.7-6.2-1.7s-4.3.5-6.2,1.6c-1.8,1.1-3.2,2.6-4.3,4.5-1,1.9-1.5,4.2-1.5,6.8ZM183.5,164.4l-6.2,21.8-6.9-21.8h-3.2l-7,21.8-6.2-21.8h-3.3l7.8,25.1h3.3l6.9-21,6.9,21h3.2l7.8-25.1h-3.2ZM143.2,155.5v34h3.2v-34h-3.2ZM118.2,179.2l6.3-17.3,6.3,17.3h-12.7ZM134.6,189.4h3.4l-11.7-31.7h-3.6l-11.7,31.7h3.4l2.8-7.6h14.6l2.8,7.6Z"/>
</svg>