<?xml version="1.0" encoding="utf-8"?>
<!-- Generator: Adobe Illustrator 23.0.5, SVG Export Plug-In . SVG Version: 6.00 Build 0)  -->
<svg version="1.1" id="Layer_1" xmlns="http://www.w3.org/2000/svg" xmlns:xlink="http://www.w3.org/1999/xlink" x="0px" y="0px"
	 viewBox="0 0 1080 1080" style="enable-background:new 0 0 1080 1080;" xml:space="preserve">
<style type="text/css">
	.st0{fill:#FD4A46;}
	.st1{fill:#0D3562;}
	.st2{fill:#086BD8;}
</style>
<polygon class="st2" points="206.96,512.11 239.25,452.42 239.25,446.97 173.52,446.97 173.52,469.45 203.85,469.45 171.39,529.56 
	171.39,534.58 240.76,534.58 240.76,512.11 "/>
<path class="st2" d="M452.02,516.26c-8.72,0-15.13-6.59-15.13-15.47c0-8.88,6.41-15.47,15.13-15.47s15.13,6.59,15.13,15.47
	C467.15,509.67,460.69,516.26,452.02,516.26z M455.14,464.78c-8.03,0-15.19,2.78-20.74,7.59l-2.92-5.37h-15.83v91.99h23.01v-26.61
	c4.77,2.88,10.36,4.49,16.48,4.49c20.67,0,35.44-15.02,35.44-36.08S475.8,464.78,455.14,464.78z M366.99,515.89
	c-8.49,0-14.58-6.16-14.58-15.1s6.09-15.1,14.58-15.1s14.58,6.21,14.58,15.1C381.57,509.73,375.48,515.89,366.99,515.89
	L366.99,515.89z M366.99,536.8c21.96,0,37.89-15.13,37.89-36.01c0-20.95-15.93-36.01-37.89-36.01c-22.04,0-37.89,15.06-37.89,36.01
	C329.1,521.67,344.96,536.8,366.99,536.8z M284.39,515.89c-8.49,0-14.58-6.16-14.58-15.1s6.09-15.1,14.58-15.1
	s14.58,6.21,14.58,15.1C298.96,509.73,292.88,515.89,284.39,515.89L284.39,515.89z M284.39,536.8c21.96,0,37.89-15.13,37.89-36.01
	c0-20.95-15.93-36.01-37.89-36.01c-22.04,0-37.89,15.06-37.89,36.01C246.49,521.67,262.35,536.8,284.39,536.8z"/>
<path class="st1" d="M908.61,534.58l-23.2-35.37L906.48,467h-26.14l-16.1,26.48v-50.89h-23.28v91.99h23.28V506l16.93,28.58H908.61z
	 M793.78,536.8c19.03,0,33.47-12.37,36.11-30.72h-22.88c-1.92,6.03-6.99,9.86-13.23,9.86c-8.11,0-14-6.36-14-15.17
	c0-8.81,5.82-15.02,14-15.02c6.07,0,11.22,3.58,13.18,9.09h22.68c-2.54-17.98-16.79-29.95-35.79-29.95
	c-21.82,0-37.39,14.9-37.39,35.81C756.46,521.61,772.11,536.8,793.78,536.8L793.78,536.8z M712.89,483.02
	c7.03,0,11.89,3.65,13.94,10.4H699.5C701.38,486.71,706.1,483.02,712.89,483.02z M749.76,500.15c0-19.82-15.08-35.37-36.87-35.37
	c-21.21,0-36.71,15.24-36.71,35.96c0,20.65,15.62,36.06,36.71,36.06c16.96,0,30.63-9.64,35.39-25.06h-23.17
	c-2.24,3.96-6.78,6.34-12.22,6.34c-7.35,0-12.28-4.01-13.8-11.76h50.19C749.58,504.22,749.76,502.19,749.76,500.15L749.76,500.15z
	 M640.71,465c-6.74,0-13.07,2.44-18.04,6.45v-28.85h-23.28v91.99h23.28v-36.09c0-8.67,4.39-13.67,11.44-13.67
	c6.07,0,8.81,3.97,8.81,11.77v38h23.28v-40.7C666.2,476.36,656.22,465,640.71,465z M544.42,536.8c23.34,0,41.23-15.64,44.56-38.68
	h-24.69c-2.45,9.74-10.1,16.07-19.82,16.07c-12.41,0-21.5-9.83-21.5-23.34c0-13.57,9.1-23.54,21.5-23.54
	c9.22,0,16.79,5.83,19.8,14.82h24.46c-3.56-22.22-21.35-37.37-44.31-37.37c-26.67,0-46.58,19.74-46.58,46.1
	C497.84,517.06,517.75,536.8,544.42,536.8L544.42,536.8z"/>
<g>
	<path class="st1" d="M826.69,625.34c0.67,0,1.23-0.24,1.69-0.72c0.46-0.48,0.69-1.07,0.69-1.77c0-0.7-0.23-1.28-0.69-1.74
		c-0.46-0.46-1.03-0.69-1.69-0.69c-0.7,0-1.28,0.23-1.74,0.69c-0.46,0.46-0.69,1.04-0.69,1.74c0,0.7,0.23,1.29,0.69,1.77
		C825.41,625.1,825.99,625.34,826.69,625.34z M824.73,591.75l0.38,24.52h2.81l0.43-24.52H824.73z M808.51,625.48
		c1.78,0,3.36-0.32,4.72-0.95c1.37-0.64,2.43-1.5,3.2-2.6c0.76-1.1,1.14-2.35,1.14-3.74c-0.03-1.53-0.45-2.75-1.24-3.67
		c-0.8-0.92-1.75-1.62-2.86-2.1c-1.11-0.48-2.61-0.97-4.48-1.48c-1.56-0.45-2.8-0.85-3.72-1.22c-0.92-0.37-1.69-0.87-2.31-1.53
		c-0.62-0.65-0.93-1.49-0.93-2.51c0-1.18,0.52-2.16,1.57-2.96c1.05-0.79,2.42-1.19,4.1-1.19c1.91,0,3.41,0.47,4.51,1.41
		c1.1,0.94,1.69,2.17,1.79,3.7h3.34c-0.13-2.48-1.05-4.43-2.77-5.84c-1.72-1.41-3.98-2.12-6.77-2.12c-1.78,0-3.37,0.32-4.77,0.95
		c-1.4,0.64-2.48,1.5-3.24,2.58c-0.76,1.08-1.14,2.26-1.14,3.53c0,1.69,0.42,3.03,1.26,4.03c0.84,1,1.87,1.76,3.08,2.27
		c1.21,0.51,2.78,1.02,4.72,1.53c1.49,0.38,2.68,0.74,3.55,1.07c0.87,0.33,1.6,0.79,2.17,1.36c0.57,0.57,0.86,1.3,0.86,2.19
		c0,1.27-0.52,2.34-1.55,3.2c-1.03,0.86-2.46,1.29-4.27,1.29c-2.07,0-3.71-0.45-4.94-1.36c-1.22-0.91-1.92-2.09-2.07-3.55h-3.44
		c0.22,2.39,1.28,4.27,3.17,5.65C803.08,624.79,805.52,625.48,808.51,625.48z M788.57,599.05v14.17c0,3.09-0.75,5.42-2.24,7.01
		c-1.5,1.59-3.5,2.39-6.01,2.39c-2.45,0-4.38-0.75-5.8-2.24c-1.42-1.49-2.12-3.66-2.12-6.49v-14.84h-3.29v15.22
		c0,3.66,0.99,6.45,2.96,8.37c1.97,1.92,4.52,2.89,7.63,2.89c1.97,0,3.75-0.43,5.34-1.29c1.59-0.86,2.77-2.1,3.53-3.72v4.58h3.34
		v-26.05H788.57z M738.47,598.58c-2,0-3.81,0.43-5.42,1.29c-1.61,0.86-2.82,2.07-3.65,3.63V589.8h-3.34v35.31h3.34v-14.22
		c0-3.09,0.75-5.42,2.24-7.01c1.49-1.59,3.5-2.39,6.01-2.39c2.45,0,4.38,0.75,5.8,2.24c1.42,1.5,2.12,3.66,2.12,6.49v14.89h3.29
		v-15.27c0-2.45-0.45-4.52-1.36-6.23c-0.91-1.7-2.15-2.97-3.72-3.79C742.22,598.99,740.45,598.58,738.47,598.58z M720.58,601.87
		v-2.81h-7.16v-6.54h-3.39v6.54h-3.63v2.81h3.63v16.17c0,2.51,0.57,4.32,1.72,5.42c1.14,1.1,2.89,1.65,5.25,1.65h3.58v-2.86h-3.05
		c-1.53,0-2.59-0.3-3.2-0.91c-0.6-0.6-0.91-1.7-0.91-3.29v-16.17H720.58z M698.16,599.05v26.05h3.34v-26.05H698.16z M699.83,594.14
		c0.67,0,1.24-0.24,1.72-0.71c0.48-0.48,0.71-1.07,0.71-1.77c0-0.7-0.24-1.28-0.71-1.74c-0.48-0.46-1.05-0.69-1.72-0.69
		c-0.67,0-1.24,0.23-1.72,0.69c-0.48,0.46-0.72,1.04-0.72,1.74c0,0.7,0.24,1.29,0.72,1.77C698.59,593.9,699.16,594.14,699.83,594.14
		z M690.34,599.05l-6.44,22.71l-7.2-22.71h-3.34l-7.3,22.66l-6.49-22.66h-3.39l8.16,26.05h3.39l7.2-21.85l7.2,21.85h3.34l8.16-26.05
		H690.34z M636.66,612.03c0,2.13-0.42,4-1.26,5.61c-0.84,1.61-2,2.83-3.46,3.67c-1.46,0.84-3.12,1.26-4.96,1.26
		c-1.78,0-3.41-0.43-4.89-1.29c-1.48-0.86-2.65-2.08-3.51-3.67c-0.86-1.59-1.29-3.43-1.29-5.53c0-2.1,0.43-3.94,1.29-5.53
		c0.86-1.59,2.03-2.82,3.51-3.67c1.48-0.86,3.11-1.29,4.89-1.29c1.84,0,3.5,0.41,4.96,1.24c1.46,0.83,2.62,2.03,3.46,3.6
		C636.24,608,636.66,609.87,636.66,612.03z M617.29,604.83V589.8H614v35.31h3.29v-5.73c0.83,1.81,2.14,3.29,3.94,4.41
		c1.8,1.13,3.94,1.69,6.42,1.69c2.35,0,4.48-0.56,6.37-1.67c1.89-1.11,3.37-2.69,4.44-4.72c1.07-2.03,1.6-4.39,1.6-7.06
		c0-2.67-0.53-5.02-1.6-7.04c-1.07-2.02-2.54-3.58-4.41-4.68c-1.88-1.1-4.01-1.65-6.39-1.65c-2.45,0-4.57,0.57-6.37,1.72
		C619.48,601.53,618.15,603.01,617.29,604.83z M594.78,622.57c-1.72,0-3.3-0.39-4.75-1.17c-1.45-0.78-2.61-1.96-3.48-3.53
		c-0.87-1.57-1.31-3.51-1.31-5.8c0-2.29,0.44-4.22,1.31-5.8c0.87-1.57,2.04-2.75,3.51-3.53c1.46-0.78,3.05-1.17,4.77-1.17
		c1.72,0,3.31,0.39,4.77,1.17c1.46,0.78,2.64,1.96,3.53,3.53c0.89,1.57,1.34,3.51,1.34,5.8c0,2.29-0.45,4.22-1.36,5.8
		c-0.91,1.57-2.09,2.75-3.55,3.53C598.08,622.18,596.49,622.57,594.78,622.57z M594.78,625.48c2.45,0,4.68-0.55,6.68-1.65
		c2-1.1,3.58-2.66,4.72-4.7c1.15-2.03,1.72-4.39,1.72-7.06c0-2.7-0.57-5.06-1.69-7.08c-1.13-2.02-2.69-3.58-4.68-4.68
		c-1.99-1.1-4.21-1.65-6.65-1.65c-2.45,0-4.66,0.55-6.63,1.65c-1.97,1.1-3.53,2.66-4.68,4.68c-1.15,2.02-1.72,4.38-1.72,7.08
		c0,2.7,0.56,5.07,1.69,7.09c1.13,2.02,2.67,3.58,4.63,4.68C590.12,624.94,592.33,625.48,594.78,625.48z M575.74,599.05h-3.34v32.06
		c0,1.24-0.27,2.12-0.81,2.65c-0.54,0.52-1.43,0.79-2.67,0.79h-1.81v2.86h2.34c2.1,0,3.67-0.5,4.72-1.5c1.05-1,1.57-2.55,1.57-4.65
		V599.05z M574.12,594.14c0.67,0,1.23-0.24,1.69-0.71c0.46-0.48,0.69-1.07,0.69-1.77c0-0.7-0.23-1.28-0.69-1.74
		c-0.46-0.46-1.03-0.69-1.69-0.69c-0.67,0-1.24,0.23-1.72,0.69c-0.48,0.46-0.72,1.04-0.72,1.74c0,0.7,0.24,1.29,0.72,1.77
		C572.88,593.9,573.45,594.14,574.12,594.14z M548.17,612.08c0,2.1-0.43,3.94-1.29,5.53c-0.86,1.59-2.03,2.82-3.51,3.67
		c-1.48,0.86-3.11,1.29-4.89,1.29c-1.84,0-3.5-0.42-4.96-1.26c-1.46-0.84-2.62-2.07-3.46-3.67c-0.84-1.61-1.26-3.47-1.26-5.61
		c0-2.16,0.42-4.03,1.26-5.61c0.84-1.58,2-2.78,3.46-3.6c1.46-0.83,3.12-1.24,4.96-1.24c1.78,0,3.41,0.43,4.89,1.29
		c1.48,0.86,2.65,2.08,3.51,3.67C547.74,608.13,548.17,609.98,548.17,612.08z M525.41,612.03c0,2.67,0.53,5.03,1.6,7.06
		c1.07,2.04,2.54,3.61,4.44,4.72c1.89,1.11,4.02,1.67,6.37,1.67c2.48,0,4.62-0.58,6.42-1.74c1.8-1.16,3.11-2.63,3.94-4.41v5.77h3.34
		v-26.05h-3.34v5.73c-0.8-1.78-2.09-3.24-3.89-4.39c-1.8-1.14-3.94-1.72-6.42-1.72c-2.39,0-4.52,0.55-6.42,1.65
		c-1.89,1.1-3.37,2.66-4.44,4.68C525.94,607.01,525.41,609.36,525.41,612.03z M502.89,612.08c0,2.1-0.43,3.94-1.29,5.53
		c-0.86,1.59-2.03,2.82-3.51,3.67c-1.48,0.86-3.11,1.29-4.89,1.29c-1.84,0-3.5-0.42-4.96-1.26c-1.46-0.84-2.62-2.07-3.46-3.67
		c-0.84-1.61-1.26-3.47-1.26-5.61c0-2.16,0.42-4.03,1.26-5.61c0.84-1.58,2-2.78,3.46-3.6c1.46-0.83,3.12-1.24,4.96-1.24
		c1.78,0,3.41,0.43,4.89,1.29c1.48,0.86,2.65,2.08,3.51,3.67C502.46,608.13,502.89,609.98,502.89,612.08z M480.13,612.03
		c0,2.67,0.53,5.03,1.6,7.06c1.07,2.04,2.54,3.61,4.44,4.72c1.89,1.11,4.03,1.67,6.42,1.67c2.45,0,4.58-0.58,6.39-1.74
		c1.81-1.16,3.12-2.65,3.91-4.46v5.82h3.34V589.8h-3.34v14.89c-0.86-1.78-2.21-3.23-4.06-4.34c-1.84-1.11-3.91-1.67-6.2-1.67
		c-2.39,0-4.53,0.55-6.42,1.65c-1.89,1.1-3.38,2.66-4.46,4.68C480.67,607.01,480.13,609.36,480.13,612.03z M463.67,598.58
		c-1.97,0-3.74,0.42-5.3,1.26c-1.56,0.84-2.75,2.06-3.58,3.65v-4.44h-3.34v26.05h3.34v-14.22c0-3.09,0.75-5.42,2.24-7.01
		c1.49-1.59,3.5-2.39,6.01-2.39c2.45,0,4.38,0.75,5.8,2.24c1.42,1.5,2.12,3.66,2.12,6.49v14.89h3.29v-15.27
		c0-3.66-0.99-6.45-2.96-8.37C469.33,599.54,466.79,598.58,463.67,598.58z M440.53,599.05v26.05h3.34v-26.05H440.53z M442.2,594.14
		c0.67,0,1.24-0.24,1.72-0.71c0.48-0.48,0.71-1.07,0.71-1.77c0-0.7-0.24-1.28-0.71-1.74c-0.48-0.46-1.05-0.69-1.72-0.69
		c-0.67,0-1.24,0.23-1.72,0.69c-0.48,0.46-0.72,1.04-0.72,1.74c0,0.7,0.24,1.29,0.72,1.77S441.54,594.14,442.2,594.14z
		 M435.29,599.05h-6.06v-1.81c0-1.94,0.44-3.32,1.31-4.15c0.87-0.83,2.39-1.24,4.56-1.24v-2.86c-3.24,0-5.59,0.67-7.04,2
		c-1.45,1.34-2.17,3.42-2.17,6.25v1.81h-3.63v2.81h3.63v23.23h3.34v-23.23h6.06V599.05z M396.59,625.48c1.78,0,3.36-0.32,4.72-0.95
		c1.37-0.64,2.43-1.5,3.2-2.6s1.14-2.35,1.14-3.74c-0.03-1.53-0.45-2.75-1.24-3.67c-0.8-0.92-1.75-1.62-2.86-2.1
		c-1.11-0.48-2.61-0.97-4.48-1.48c-1.56-0.45-2.8-0.85-3.72-1.22c-0.92-0.37-1.69-0.87-2.31-1.53c-0.62-0.65-0.93-1.49-0.93-2.51
		c0-1.18,0.52-2.16,1.57-2.96c1.05-0.79,2.42-1.19,4.1-1.19c1.91,0,3.41,0.47,4.51,1.41c1.1,0.94,1.69,2.17,1.79,3.7h3.34
		c-0.13-2.48-1.05-4.43-2.77-5.84c-1.72-1.41-3.98-2.12-6.77-2.12c-1.78,0-3.37,0.32-4.77,0.95c-1.4,0.64-2.48,1.5-3.24,2.58
		c-0.76,1.08-1.14,2.26-1.14,3.53c0,1.69,0.42,3.03,1.26,4.03c0.84,1,1.87,1.76,3.08,2.27c1.21,0.51,2.78,1.02,4.72,1.53
		c1.49,0.38,2.68,0.74,3.55,1.07c0.87,0.33,1.6,0.79,2.17,1.36s0.86,1.3,0.86,2.19c0,1.27-0.52,2.34-1.55,3.2
		c-1.03,0.86-2.46,1.29-4.27,1.29c-2.07,0-3.71-0.45-4.94-1.36c-1.22-0.91-1.92-2.09-2.07-3.55h-3.44c0.22,2.39,1.28,4.27,3.17,5.65
		C391.16,624.79,393.6,625.48,396.59,625.48z M379.66,599.05l-8.59,22.23l-8.87-22.23h-3.67l10.69,25.91l-5.06,12.41h3.48
		l15.46-38.31H379.66z M350.65,612.08c0,2.1-0.43,3.94-1.29,5.53c-0.86,1.59-2.03,2.82-3.51,3.67c-1.48,0.86-3.11,1.29-4.89,1.29
		c-1.84,0-3.5-0.42-4.96-1.26c-1.46-0.84-2.62-2.07-3.46-3.67c-0.84-1.61-1.26-3.47-1.26-5.61c0-2.16,0.42-4.03,1.26-5.61
		c0.84-1.58,2-2.78,3.46-3.6c1.46-0.83,3.12-1.24,4.96-1.24c1.78,0,3.41,0.43,4.89,1.29c1.48,0.86,2.65,2.08,3.51,3.67
		C350.22,608.13,350.65,609.98,350.65,612.08z M327.89,612.03c0,2.67,0.53,5.03,1.6,7.06c1.07,2.04,2.54,3.61,4.44,4.72
		c1.89,1.11,4.02,1.67,6.37,1.67c2.48,0,4.62-0.58,6.42-1.74c1.8-1.16,3.11-2.63,3.94-4.41v5.77h3.34v-26.05h-3.34v5.73
		c-0.8-1.78-2.09-3.24-3.89-4.39c-1.8-1.14-3.94-1.72-6.42-1.72c-2.39,0-4.52,0.55-6.42,1.65c-1.89,1.1-3.37,2.66-4.44,4.68
		C328.42,607.01,327.89,609.36,327.89,612.03z M321.6,599.05l-6.44,22.71l-7.2-22.71h-3.34l-7.3,22.66l-6.49-22.66h-3.39l8.16,26.05
		h3.39l7.2-21.85l7.2,21.85h3.34l8.16-26.05H321.6z M279.61,589.8v35.31h3.34V589.8H279.61z M253.66,614.42l6.58-18.03l6.58,18.03
		H253.66z M270.74,625.1h3.53l-12.12-32.92h-3.77l-12.17,32.92h3.53l2.91-7.92h15.17L270.74,625.1z"/>
</g>
</svg>
